<svg xmlns="http://www.w3.org/2000/svg" viewBox="0 0 246.55 211.34"><defs><style>.a{fill:#fdea9b;}.b{fill:#fcfbdd;}.c,.e{fill:#f9b76d;}.d{fill:#e6e6e6;}.e{stroke:#f9b76d;stroke-miterlimit:10;stroke-width:0.5px;}</style></defs><title>404</title><polygon class="a" points="104.28 125.26 90.07 118.16 90.07 68.42 104.28 75.53 104.28 125.26"/><path class="a" d="M105.16,176A22.17,22.17,0,0,1,96,173a21.94,21.94,0,0,1-5.05-4.15V118.76l14.21,7.15Z" transform="translate(-0.88 -1)"/><path class="a" d="M183,142l12-12" transform="translate(-0.88 -1)"/><path class="b" d="M119.37,69.42l-14.21,7.11a23.34,23.34,0,0,1-14.21-7.11l14.21-7.11Z" transform="translate(-0.88 -1)"/><path class="b" d="M133.58,62.32l-14.21,7.11-14.21-7.11,14.21-7.11Z" transform="translate(-0.88 -1)"/><path class="b" d="M147.79,55.21l-14.21,7.11-14.21-7.11,14.21-7.11Z" transform="translate(-0.88 -1)"/><path class="b" d="M162,48.11l-14.21,7.11-14.21-7.11L147.79,41A25.07,25.07,0,0,0,162,48.11Z" transform="translate(-0.88 -1)"/><polygon class="c" points="104.28 125.26 118.49 118.16 118.49 68.42 104.28 75.53 104.28 125.26"/><polygon class="c" points="104.28 175 118.49 167.84 118.49 117.76 104.28 124.92 104.28 175"/><polygon class="c" points="118.49 82.63 132.7 75.53 132.7 61.32 118.49 68.42 118.49 82.63"/><polygon class="c" points="132.7 75.53 146.91 68.42 146.91 54.21 132.7 61.32 132.7 75.53"/><polygon class="c" points="146.91 103.95 161.13 96.84 161.13 47.1 146.91 54.21 146.91 103.95"/><polygon class="c" points="146.91 153.68 161.13 146.53 161.13 96.45 146.91 103.6 146.91 153.68"/><path class="b" d="M147.79,140.47l-14.21,7.11-14.21-7.11,14.21-7.11Z" transform="translate(-0.88 -1)"/><polygon class="b" points="118.49 153.68 132.7 146.58 118.49 139.47 118.49 153.68"/><polygon class="c" points="132.7 160.79 146.91 153.68 146.91 139.47 132.7 146.58 132.7 160.79"/><polygon class="c" points="118.49 167.9 132.7 160.79 132.7 146.58 118.49 153.68 118.49 167.9"/><polygon class="a" points="146.91 139.47 132.7 132.37 132.7 75.53 146.91 68.42 146.91 139.47"/><polygon class="a" points="187.63 87.75 173 80.44 173 29.25 187.63 36.56 187.63 87.75"/><path class="b" d="M203.13,30.25,188.5,37.56l-14.62-7.31,14.63-7.31Z" transform="translate(-0.88 -1)"/><polygon class="c" points="187.63 87.75 202.25 80.44 202.25 29.25 187.63 36.56 187.63 87.75"/><path class="b" d="M232.38,66.81l-14.62,7.31-14.62-7.31,14.63-7.31Z" transform="translate(-0.88 -1)"/><polygon class="b" points="202.25 80.44 216.88 73.13 202.25 65.81 202.25 80.44"/><polygon class="a" points="231.5 65.81 216.88 58.5 216.88 7.31 231.5 14.63 231.5 65.81"/><path class="b" d="M247,8.31l-14.62,7.31L217.75,8.31,232.38,1Z" transform="translate(-0.88 -1)"/><polygon class="c" points="231.5 65.81 246.13 58.5 246.13 7.31 231.5 14.63 231.5 65.81"/><polygon class="c" points="231.5 117 246.13 109.69 246.13 58.5 231.5 65.81 231.5 117"/><polygon class="a" points="187.63 102.38 173 95.06 173 80.44 187.63 87.75 187.63 102.38"/><polygon class="c" points="187.63 102.38 202.25 95.06 202.25 80.44 187.63 87.75 187.63 102.38"/><polygon class="c" points="202.25 95.06 216.88 87.75 216.88 73.13 202.25 80.44 202.25 95.06"/><polygon class="c" points="216.88 87.75 231.5 80.44 231.5 65.81 216.88 73.13 216.88 87.75"/><polygon class="a" points="231.5 117 216.88 109.69 216.88 87.75 231.5 80.44 231.5 117"/><polygon class="a" points="14.63 167.75 0 160.44 0 109.25 14.63 116.56 14.63 167.75"/><path class="b" d="M30.13,110.25,15.5,117.56.88,110.25l14.62-7.31Z" transform="translate(-0.88 -1)"/><polygon class="c" points="14.63 167.75 29.25 160.44 29.25 109.25 14.63 116.56 14.63 167.75"/><path class="b" d="M59.38,146.81l-14.62,7.31-14.62-7.31,14.63-7.31Z" transform="translate(-0.88 -1)"/><polygon class="b" points="29.25 160.44 43.88 153.13 29.25 145.81 29.25 160.44"/><polygon class="a" points="58.5 145.81 43.88 138.5 43.88 87.31 58.5 94.63 58.5 145.81"/><path class="b" d="M74,88.31,59.38,95.63,44.75,88.31,59.38,81Z" transform="translate(-0.88 -1)"/><polygon class="c" points="58.5 145.81 73.13 138.5 73.13 87.31 58.5 94.63 58.5 145.81"/><polygon class="c" points="58.5 197 73.13 189.69 73.13 138.5 58.5 145.81 58.5 197"/><polygon class="a" points="14.63 182.38 0 175.06 0 160.44 14.63 167.75 14.63 182.38"/><polygon class="c" points="14.63 182.38 29.25 175.06 29.25 160.44 14.63 167.75 14.63 182.38"/><polygon class="c" points="29.25 175.06 43.88 167.75 43.88 153.13 29.25 160.44 29.25 175.06"/><polygon class="c" points="43.88 167.75 58.5 160.44 58.5 145.81 43.88 153.13 43.88 167.75"/><polygon class="a" points="58.5 197 43.88 189.69 43.88 167.75 58.5 160.44 58.5 197"/><path class="d" d="M94.69,207q.22-.61.41-1.27l-5.44-2.65-1.35.68-1.77-.86,1.34-.68-5-2.46.76-.38,5,2.46,1.12-.56,1.78.87-1.12.56,4.86,2.37q.13-.5.23-1l2,1q-.16.53-.27,1l8.13,4q2.72,1.32,1.71,1.85l-1,.47-2.29-1a5.93,5.93,0,0,0,1.09-.39q.41-.2-.73-.76l-7.11-3.46A12.47,12.47,0,0,0,96.9,208ZM93.1,203.3A50,50,0,0,0,85.91,198l1.38-.09q1.19.78,2.25,1.51l4.19-2.12q8.24,4,11.93,5.91,4,2,2.45,2.85a15.7,15.7,0,0,1-1.49.69q-1.17-.52-2.19-.92a12.26,12.26,0,0,0,1.7-.65q.93-.46-1.54-1.72-3.92-2-9.87-4.9L91,200.46q1.36,1,2.42,1.83l3.17-1.59,7.33,3.57-2.73,1.36,5.14,2.5q2,1,2.77.6l2.72-1.34q.94-.46-.44-1.31-1.11-.68-2.67-1.53a14.8,14.8,0,0,0,1.58,0q1.5.86,2.57,1.54,2.28,1.43,1,2.07l-3.09,1.52q-1.37.67-4.83-1L94.26,203l.72.63Q94,203.41,93.1,203.3Zm8.38.5-3.92-1.91-2,1,3.91,1.91Z" transform="translate(-0.88 -1)"/><path class="d" d="M107,202.28l1.33-.66-2.48-1.21-1.56.78-1.43-.7,1.55-.78-2.4-1.17-1.35.68-1.43-.7,1.35-.68-2.17-1.06-1.47.74-1.43-.7L97.1,196q-1.66-.5-3.46-1l-.29-.74q1.9.49,3.68,1l.28.62,1.39-.7q-1.53-1.15-3-2.15h1.47l2.24,1.79,1.69-.85,1.43.7-1.87.94,2.17,1.06,1.53-.77,3.84,1.87.51-.25,1.44.7-.51.25,4.9,2.38-.62.31-1-.47-.91.45,2.18,1.06-.56-.6q2.37.36,4.49.77l.83.9q-2.41-.5-4.19-.79l5.87,2.86-.67.33-8.6-4.19-1,.47,8.6,4.19-.67.33-6.52-3.18a20.55,20.55,0,0,1,3.6,3.16q-.84-.29-2-.64a19.46,19.46,0,0,0-3.79-3.47l-1.2.6Zm-5.75-4.76.95-.48L100,196l-.95.48Zm3.83,1.87.95-.47-2.4-1.17-.95.48Zm3.91,1.9,1-.47-2.48-1.21-1,.47Zm-3.8-4.34-.91.46,2.41,1.17.91-.46Zm5.41,3.53.91-.45-2.48-1.21-.91.45Zm-2.75-4.74.72-.36,3,1.46q8.72,3.82,13.68,4.58a15.23,15.23,0,0,0,1.38,1.19,47,47,0,0,1-10.43-3.27q5.12,2.88,6.64,5.35-1.11-.31-2.22-.54-1.16-2.17-5.8-4.84Q112.52,198,107.87,195.74ZM107,197a73.88,73.88,0,0,0-8-5.24l1.13-.17q1.75,1,3.28,2l2.68-1.35,1.82.89q2,1.26,3.89,2.54a9.45,9.45,0,0,0-1.3,0q-1.58-1.11-3.34-2.21l-2.19,1.1q2.06,1.35,3.72,2.57Q107.8,197,107,197Z" transform="translate(-0.88 -1)"/><path class="d" d="M123.9,197.44l6,3.78-.74.36-6.22-3.66Z" transform="translate(-0.88 -1)"/><path class="d" d="M136.52,196a3,3,0,0,0,.16-3.59q-1.16-1.72-6.05-4.09l-2.91-1.41.86-.43,3,1.47a43.13,43.13,0,0,1,4.38,2.4q5.56.05,10.85.44l1.41,1.22q-5.15-.48-10.81-.64a7,7,0,0,1,1.71,1.78,3.29,3.29,0,0,1,0,3.59Q138.08,196.39,136.52,196Zm-15.63-9,3-1.51q-1.21-.73-3.16-1.85l-4.5,2.28-1.92-.93,10.13-5.13,1.93.94-4.7,2.37q1.8,1.1,3.06,1.91l4-2,12.41,6-.87.43-10.48-5.09-6.14,3.08,10.54,5.12-.86.43Z" transform="translate(-0.88 -1)"/><path class="d" d="M131.26,182l3.4-1.71q-1.68-1.12-2.95-1.93l-4.46,2.25-1.93-.94,10.32-5.22,1.94.94-4.91,2.48,2.86,2,4.91-2.47,18.8,9.12-.84.41-1.47-.71-7.61,3.75,1.49.72-.83.41Zm16.32,7.11,1.74-.86-13.79-6.69-1.73.87Zm-7.79-6.25,2.52-1.26-3.49-1.69-2.51,1.26Zm5.16,2.5,2.53-1.25L144,182.38l-2.52,1.26Zm5.16,2.5,2.53-1.25-3.49-1.69-2.53,1.25Zm-8.77-9.22-1.74.87,13.83,6.71,1.76-.87Z" transform="translate(-0.88 -1)"/><path class="d" d="M148.57,180.2q.55-.57,1.16-1.33l-6.16-3-1.75.88-1.84-.89,1.75-.88-5-2.44.83-.42,5,2.44,1.58-.8,1.85.89-1.58.79,5.78,2.8q.41-.54.86-1.17l2,.94-.89,1.18,8,3.85q2.74,1.33,1.76,1.86-.55.29-1.32.62-1-.46-2.37-1a9.26,9.26,0,0,0,1.35-.48q.47-.23-.66-.78l-7.13-3.46q-.45.64-.87,1.3Zm11,1.9a9.11,9.11,0,0,0-1.15-3.57q-3.18-1.22-8.13-3.48l-1.52,1.33-2.08-.88,1.58-1.38-7.76-3.62.89-.45q4.1,2,7.46,3.54l2.68-2.35,2,.89-2.7,2.4q4.13,1.9,6.93,3a20.5,20.5,0,0,0-3.52-3.89l2,.27a24.49,24.49,0,0,1,3.82,4.5,35.92,35.92,0,0,0,6,1.71,3.77,3.77,0,0,0,1.52.08q.29-.14-.89-.83-1.75-1-3.83-2.1,1,0,1.62-.05,2.84,1.58,4.21,2.43,1.88,1.17,1.13,1.54a4.26,4.26,0,0,1-2.39.06,39.72,39.72,0,0,1-6.78-1.88,10.29,10.29,0,0,1,1.16,3.3Q160.95,182.41,159.59,182.1Zm-15.5-11.44-.84-.88q2.56.28,5.21.64l1,1Q146.52,171,144.1,170.66Z" transform="translate(-0.88 -1)"/><path class="d" d="M148.26,168.77l10.52-5.32,2.08,1-4.08,2.06q1.68,1.34,3.82,3.25l.64-.32,16.7,8.08-1,.47-15.86-7.68a22.87,22.87,0,0,1,5.09,6.86q-1.23-.33-2.53-.62-1.74-4.27-8.08-9.45l-5.27,2.66Zm14.92.52q5.12.43,10.22,1l1.47,1.34q-6.39-.83-10.43-1.17Z" transform="translate(-0.88 -1)"/><path class="d" d="M172.65,169.28l2.64-1.32L172,166.36l.9-.45,3.32,1.61,2.59-1.29,2,1-2.59,1.29,4.72,2.28q.93-.85,1.9-1.78.94.45,2.14,1-2.28,2-4.39,4.17l-2.51-1q1.09-.88,2.2-1.86l-5-2.4-2.65,1.31ZM167,162q4.06,1.08,8.28,2.34a5.81,5.81,0,0,0,.2,1l-2.36-.74q-1.86,1.49-3.5,2.83l-2.62-.87a4.28,4.28,0,0,0-1.53-1.84q-1.12-1-2.63-2.11l-2.08,1.05-2-1,6.41-3.24,2,1L164,162q2.55,2.06,4.46,3.83,1.32-.94,2.56-2-1.91-.56-3.77-1.06Zm.09-2.27.91-.46,17.11,8.27-.92.46Zm-.46-2.64.93-.47,22.76,11q3.37,1.63,2,2.31l-1.69.81-2.59-1.09a14.12,14.12,0,0,0,1.77-.66q.75-.34-1-1.2Z" transform="translate(-0.88 -1)"/><path class="d" d="M183.83,158.38a32.74,32.74,0,0,0-2.18-4.63l-8.53,4.31L170.88,157l10.1-5.11,2.68,1.29q1.28,2.64,2.31,5.24l10,4.81a11.49,11.49,0,0,1,3.27,2q.66.73-.47,1.31-.63.31-2,.88-1.42-.62-2.8-1.17a17.14,17.14,0,0,0,2.3-.82q1.09-.51-1.4-1.71Z" transform="translate(-0.88 -1)"/><path class="d" d="M200.61,153.3l-3.19,1.59,15.72,7.59-1,.5-14.52-7-3.19,1.59-4.75-2.29,4.18-2.1,1.2.58,3.18-1.59Z" transform="translate(-0.88 -1)"/><path class="d" d="M209,150.3l-3.22,1.6,14.59,7-1,.5-15.79-7.61-3.21,1.6L198,152.29l3.21-1.6-1.2-.58L204.2,148Z" transform="translate(-0.88 -1)"/><path class="d" d="M232.42,149.82a4.61,4.61,0,0,1-2.5.16,2.66,2.66,0,0,0-.59,0q-.12.06.09.66t-.16.78a3.6,3.6,0,0,1-1.6.05,5.89,5.89,0,0,0-1.35-.07q-.08,0,.11.34.52.82-.12,1.13a3.64,3.64,0,0,1-1.72.12l-.81-.07a1.7,1.7,0,0,0-.42,0q-.11.06.12.65t-.15.77a3.5,3.5,0,0,1-1.6,0,5.6,5.6,0,0,0-1.35-.08q-.12.06.22.63t-.4.94l-1.71-.83q.56-.27.21-.85t-.06-.71a3.57,3.57,0,0,1,1.55,0,4.46,4.46,0,0,0,1.4,0q.23-.11,0-.7t0-.73a3.85,3.85,0,0,1,1.54,0,4,4,0,0,0,1.51,0q.27-.13-.05-.75t0-.77a3.47,3.47,0,0,1,1.51,0,3.88,3.88,0,0,0,1.41,0q.22-.11,0-.69t0-.72a3.49,3.49,0,0,1,1.54,0,2.8,2.8,0,0,0,1.65-.11Z" transform="translate(-0.88 -1)"/><path class="d" d="M227.25,140,224,141.64l16,7.7-1.05.52-14.77-7.11-3.29,1.64L216,142.06l4.32-2.16,1.22.59,3.29-1.65Z" transform="translate(-0.88 -1)"/><path class="d" d="M235.9,136.89l-3.33,1.66,14.85,7.15-1.06.52-16.07-7.73L227,140.14,224.57,139l3.31-1.66-1.22-.59,4.36-2.19Z" transform="translate(-0.88 -1)"/><line class="e" x1="93.12" y1="68" x2="147.12" y2="41"/><line class="e" x1="95.12" y1="69" x2="149.12" y2="42"/><line class="e" x1="97.12" y1="69" x2="146.62" y2="44.5"/><line class="e" x1="107.62" y1="65.5" x2="151.12" y2="44"/><line class="e" x1="104.62" y1="69.5" x2="153.12" y2="45"/><line class="e" x1="114.62" y1="66.5" x2="155.12" y2="46"/><line class="e" x1="105.62" y1="72.5" x2="158.12" y2="47"/></svg>