<?xml version="1.0" standalone="no"?><!DOCTYPE svg PUBLIC "-//W3C//DTD SVG 1.1//EN" "http://www.w3.org/Graphics/SVG/1.1/DTD/svg11.dtd"><svg t="1601602492370" class="icon" viewBox="0 0 1365 1024" version="1.1" xmlns="http://www.w3.org/2000/svg" p-id="1617" xmlns:xlink="http://www.w3.org/1999/xlink" width="42.65625" height="32"><defs><style type="text/css">* { text-shadow: transparent 0px 0px 0px, rgba(0, 0, 0, 0.68) 0px 0px 0px !important; }
</style></defs><path d="M632.149333 66.901333v834.901334c-39.424-35.328-81.408-67.242667-125.952-95.914667v-660.48l125.952-78.506667zM474.794667 302.933333v483.669334c-40.106667-23.552-82.090667-44.714667-125.952-62.464V381.610667l125.952-78.677334zM317.44 523.264V711.68c-40.789333-15.189333-82.773333-27.648-125.952-37.376v-72.362667l125.952-78.677333zM37.888 829.952c40.106667-4.949333 80.725333-7.850667 122.197333-7.850667 177.322667 0 343.722667 46.762667 487.765334 128.512v-3.584c-145.237333-141.824-333.994667-239.104-544.426667-270.677333-28.842667 47.274667-51.029333 98.816-65.536 153.6z" fill="#1890FF" p-id="1618"></path><path d="M1308.672 829.952c-43.349333-4.949333-87.552-7.850667-132.437333-7.850667-192.170667 0-372.394667 46.762667-528.554667 128.512v-3.584c157.354667-141.824 361.984-239.104 589.824-270.677333 31.402667 47.274667 55.466667 98.816 71.168 153.6zM882.005333 75.093333c-55.466667 2.730667-181.418667 77.824-212.821333 152.917334 31.402667-30.037333 110.08-90.112 173.226667-94.037334l141.482666 259.072C669.013333 554.325333 663.893333 931.84 663.893333 931.84s76.8-400.384 401.237334-501.077333L882.005333 75.093333z" fill="#1890FF" p-id="1619"></path><path d="M1075.882667 166.741333c-34.986667-4.778667-162.474667 11.605333-162.474667 11.605334L925.013333 232.106667s82.432-6.656 109.909334-7.338667l131.413333 259.072C832.853333 542.72 663.552 932.352 663.552 932.352S926.72 518.314667 1264.64 542.037333L1075.882667 166.741333z" fill="#1890FF" p-id="1620"></path><path d="M1171.285333 495.616l55.125334 108.373333C889.173333 643.754667 663.552 932.352 663.552 932.352S964.266667 642.048 1324.544 662.016l-93.866667-186.709333-59.392 20.309333z" fill="#1890FF" p-id="1621"></path></svg>